<?xml version="1.0" encoding="UTF-8"?>
<svg id="Layer_1" xmlns="http://www.w3.org/2000/svg" version="1.1" viewBox="0 0 1292 50">
  <!-- Generator: Adobe Illustrator 29.0.1, SVG Export Plug-In . SVG Version: 2.1.0 Build 192)  -->
  <defs>
    <style>
      .st0 {
        fill: #000;
      }
    </style>
  </defs>
  <path class="st0" d="M153,24.2c25.5-.1,51-.4,76.5-.7,6.4,0,12.7-.1,19.1-.3l9.6-.2,9.6-.3c12.7-.3,25.5-.9,38.2-1.4,12.7-.5,25.5-1.1,38.2-1.4,6.4-.2,12.7-.3,19.1-.4,6.4,0,12.8-.2,19.1,0,12.7.3,25.5,2.4,38.2,3,3.2.2,6.4.2,9.6.2,1.6,0,3.2,0,4.8,0h2.4c.8-.1,1.6-.2,2.4-.4,3.2-.7,6.4-4,9.6-5.6,1.6-.8,3.2-1.2,4.8-1.1,1.6,0,3.2,0,4.8,0,3.2,0,6.4.4,9.6.9,3.2.5,6.4,1.1,9.6,1.7,6.4,1.2,12.7,2.2,19.1,2.1,6.4,0,12.8-.7,19.1-1.8,6.4-1.2,12.7-2.7,19.1-3.8,6.4-1.1,12.7-1.6,19.1-1.4,3.2.1,6.4.5,9.6,1.1,3.2.6,6.4,1.5,9.6,2.4,3.2.9,6.4,1.8,9.6,2.5,3.2.7,6.4,1.2,9.6,1.8,3.2.5,6.4,1.1,9.6,1.5,3.2.5,6.4.9,9.6,1.3v3.7c-3.2.4-6.4.8-9.6,1.3-3.2.5-6.4,1-9.6,1.5-3.2.6-6.4,1.1-9.6,1.8-3.2.7-6.4,1.6-9.6,2.5-3.2.9-6.4,1.8-9.6,2.4-3.2.6-6.4,1-9.6,1.1-6.4.2-12.7-.3-19.1-1.4-6.4-1.1-12.8-2.6-19.1-3.8-6.4-1.2-12.7-1.8-19.1-1.8-6.4,0-12.7.9-19.1,2.1-3.2.6-6.4,1.2-9.6,1.7-3.2.5-6.4.8-9.6.9-1.6,0-3.2,0-4.8,0-1.6,0-3.2-.3-4.8-1.1-3.2-1.7-6.4-4.9-9.6-5.6-.8-.2-1.6-.3-2.4-.3h-2.4c-1.6-.2-3.2-.2-4.8-.2-3.2,0-6.4,0-9.6.2-12.7.7-25.5,2.7-38.2,3-6.4.2-12.7,0-19.1,0-6.4,0-12.7-.2-19.1-.4-12.7-.3-25.5-.8-38.2-1.4-12.8-.5-25.5-1.1-38.2-1.4l-9.6-.3-9.6-.2c-6.4-.1-12.7-.2-19.1-.3-25.5-.2-51-.5-76.5-.6-51-.3-102-2-153-2.3,0,0,102-.6,153-.9Z"/>
  <path class="st0" d="M1292,25.1c-51.3-.7-102.9-.7-154.4-1-25.7-.1-51.4-.4-77.2-.6-6.4,0-12.9-.1-19.3-.3l-9.6-.2-9.7-.3c-12.9-.3-25.7-.9-38.6-1.4-12.9-.5-25.7-1.1-38.6-1.4-6.4-.2-12.9-.3-19.3-.4-6.4,0-12.9-.2-19.3,0-12.9.3-25.7,2.3-38.6,3-3.2.2-6.4.2-9.6.2-1.6,0-3.2,0-4.8,0h-2.4c-.8-.1-1.6-.2-2.4-.4-3.2-.7-6.4-4-9.6-5.6-1.6-.8-3.2-1.2-4.8-1.1-1.6,0-3.2,0-4.8,0-3.2,0-6.4.4-9.6.9-3.2.5-6.4,1.1-9.7,1.7-6.4,1.3-12.9,2.2-19.3,2.1-6.4,0-12.9-.7-19.3-1.8-6.4-1.2-12.9-2.7-19.3-3.8-6.4-1.1-12.9-1.6-19.3-1.4-3.2.1-6.4.5-9.6,1.1-3.2.6-6.4,1.5-9.7,2.4-3.2.9-6.4,1.8-9.6,2.5-3.2.7-6.4,1.2-9.7,1.8-3.2.5-6.4,1-9.6,1.5-3.2.5-6.4.9-9.7,1.3v3.7c3.2.4,6.4.8,9.7,1.3,3.2.5,6.4,1,9.6,1.5,3.2.6,6.4,1.1,9.7,1.8,3.2.7,6.4,1.6,9.6,2.5,3.2.9,6.4,1.8,9.7,2.4,3.2.6,6.4,1,9.6,1.1,6.4.2,12.9-.3,19.3-1.4,6.4-1.1,12.9-2.6,19.3-3.8,6.4-1.2,12.9-1.8,19.3-1.8,6.4,0,12.9.9,19.3,2.1,3.2.6,6.4,1.2,9.7,1.7,3.2.5,6.4.8,9.6.9,1.6,0,3.2,0,4.8,0,1.6,0,3.2-.3,4.8-1.1,3.2-1.6,6.4-4.9,9.6-5.6.8-.2,1.6-.3,2.4-.3h2.4c1.6-.2,3.2-.2,4.8-.2,3.2,0,6.4,0,9.6.2,12.9.7,25.7,2.7,38.6,3,6.4.2,12.9,0,19.3,0,6.4,0,12.9-.2,19.3-.4,12.9-.3,25.7-.8,38.6-1.4,12.9-.5,25.7-1.1,38.6-1.4l9.7-.3,9.6-.2c6.4-.1,12.9-.2,19.3-.3,25.7-.3,51.5-.5,77.2-.6,51.5-.3,154.4-2.2,154.4-2.2Z"/>
  <path class="st0" d="M643.7,0c12,12,22.7,22.7,25,25-2.3,2.3-13,13-25,25-12-12-22.7-22.7-25-25,2.3-2.3,13-13,25-25ZM643.7,20.2c-1.7,1.7-3.3,3.3-4.8,4.8,1.5,1.5,3.1,3.1,4.8,4.8,1.7-1.7,3.3-3.3,4.8-4.8-1.5-1.5-3.1-3.1-4.8-4.8Z"/>
</svg>