<?xml version="1.0" encoding="UTF-8"?>
<svg id="border-bgold" xmlns="http://www.w3.org/2000/svg" version="1.1" xmlns:xlink="http://www.w3.org/1999/xlink" viewBox="0 0 512 512">
  <!-- Generator: Adobe Illustrator 29.3.1, SVG Export Plug-In . SVG Version: 2.1.0 Build 151)  -->
  <defs>
    <style>
      .st0 {
        fill: #141414;
      }

      .st1 {
        fill: url(#linear-gradient);
      }
    </style>
    <linearGradient id="linear-gradient" x1="-848.3" y1="145.6" x2="-847.3" y2="146.6" gradientTransform="translate(434435 -64789.6) scale(512.1 445.2)" gradientUnits="userSpaceOnUse">
      <stop offset="0" stop-color="#fffec8"/>
      <stop offset="1" stop-color="#968c6a"/>
    </linearGradient>
  </defs>
  <path id="Background" class="st0" d="M499.7,31.3v421.3h-232.6c0-.1-.1-.2-.1-.4h5.7c-6.1-4-11.5-8.4-16.8-13.1-5.4,4.8-11.6,9.1-17.7,13.1h6.4c0,.1,0,.2-.1.4H12.3V31.3h232.3c0,.1,0,.2.1.4h-6.4c6.2,4,12.4,8.4,17.7,13.1,5.3-4.8,10.6-9.1,16.8-13.1h-5.7c.1-.2.1-.3.1-.4h232.5Z"/>
  <path id="Border" class="st1" d="M256,23.5c-3.5,0-6.3,2.8-6.3,6.3s2.8,6.3,6.3,6.3,6.3-2.8,6.3-6.3-2.8-6.3-6.3-6.3ZM256,448.1c-3.5,0-6.3,2.8-6.3,6.3s2.8,6.3,6.3,6.3,6.3-2.8,6.3-6.3-2.8-6.3-6.3-6.3ZM394.5,452.3c-.1.1-.2.1-.3.2l-.3.3c-.1.1-.2.2-.2.3-.1.1-.1.2-.2.3-.1.1-.1.2-.2.3-.1.2-.2.3-.3.5,0,.1-.1.2-.1.3-.1.2-.1.4-.2.6,0,.1,0,.2-.1.3,0,.3-.1.6-.1.9v.5h9.5v-.2c.1-1.2.1-2.6.1-3.8v-.5h-7.6ZM390.8,452.2v.5h3.2l.3-.3h.1q.1-.2.2-.2h-3.8ZM109,452.3v.5h13.6v-.5h-13.6ZM120.3,452.8v3.2c0,.1,0,.2,0,.3,0,.1,0,.2,0,.3h2.5v-3.8h-2.3ZM402.2,452.7v-.4h-7.4s-.1.1-.2.1c-.1.1-.2.1-.3.2,0,0-.1,0-.1.1l-.3.3c-.1.1-.1.2-.2.2h0c-.1.1-.2.2-.2.3-.3.4-.4.7-.6,1.2,0,.1,0,.2-.1.3v.2c0,.1-.1.2-.1.3,0,.3-.1.6-.1.9v.4h9.3v-.2h.1c.2-1.2.2-2.5.2-3.9ZM394.3,452.3q.1-.1.2-.1h-3.8v.4h3.5s.1,0,.1-.1c.1-.1.2-.1.3-.2.1,0,.1-.1.2-.1h-.5q0,.1,0,.1ZM109.1,452.2s0,0,0,0h0v.4h13.6v-.5h-13.6ZM120.4,452.7v3.4h0c0,.2,0,.3,0,.5h0v.2h2.5v-4h-2.4ZM512,19.5h-199c-8.2,0-16.2-.9-23.4,2.8-3.8,2-7.1,3.8-9.4,5h-13c.1.7.2,1.4.2,2.2s0,1.3-.2,1.8h0c0,.1,0,.2-.1.4h5.7c-6.2,4-11.5,8.3-16.8,13.1-5.3-4.7-11.5-9.1-17.7-13.1h6.5c0-.1,0-.2-.1-.4-.1-.6-.2-1.2-.2-1.8s.1-1.5.2-2.2h-14c-1.9-1.1-4.2-2.4-6.6-3.7-.1,0-.2-.1-.3-.2-.4-.2-.7-.4-1-.6-7.4-4.1-15.9-3.4-24.5-3.4H0v445.2h198.4c8.6,0,17.1.7,24.5-3.4.3-.2.7-.4,1-.6.1,0,.2-.1.3-.2,2.4-1.3,4.7-2.6,6.6-3.7h14c-.1-.7-.2-1.5-.2-2.2s0-1.1.1-1.7c0-.2,0-.3.1-.5h-6.5c6.1-4,12.3-8.3,17.7-13.1,5.3,4.7,10.7,9.1,16.8,13.1h-5.8q0,.2.1.4h0c.1.6.1,1.2.1,1.8s-.1,1.5-.2,2.2h13c2.3,1.3,5.6,3.1,9.4,5,7.2,3.7,15.2,2.8,23.4,2.8h199.2v-12.2h0V19.5ZM503.8,23.5h3.7v3.9h-3.7v-3.9ZM299.5,25.7c3.1-1.5,6.6-2.2,10.1-2.2h189.8v3.9h-203.4c1.2-.6,2.3-1.2,3.5-1.7ZM12.5,23.5h186.8c6.5,0,10,.8,13.2,2.3,1.1.5,2.3,1.1,3.4,1.6H12.5v-3.9ZM8,460.5h-3.7v-3.9h3.7v3.9ZM8,452.3h-3.7V31.8h3.7v420.5ZM8,27.4h-3.7v-3.9h3.7v3.9ZM212.5,458.3c-3.2,1.5-6.7,2.3-13.2,2.3H12.5v-3.9h203.5c-1.2.5-2.3,1.1-3.5,1.6ZM258.5,430.1l-2.6-2.5-2.6,2.5c-8.6,8.5-18.4,15.9-29.2,22.1H12.5V31.8h211.7c10.8,6.2,20.6,13.6,29.2,22.1l2.6,2.5,2.6-2.5c8.6-8.5,18.4-15.9,29.2-22.1h211.7v420.5h-105.2q.1-.1.2-.1h-3.8c0,.1-103,.1-103,.1-10.9-6.3-20.5-13.7-29.2-22.2ZM499.3,460.5h-189.6c-3.5,0-6.9-.7-10.1-2.2-1.2-.5-2.4-1.1-3.6-1.7h96.6v.2h9.5v-.2h97.3v3.9h-.1ZM507.5,460.5h-3.7v-3.9h3.7v3.9ZM507.7,452.2h-3.8V31.7h3.8v420.5ZM120.4,452.7v3.4h0c0,.2,0,.3,0,.5h0v.2h2.5v-4h-2.4ZM109,452.2h0v.4h13.6v-.5h-13.7ZM394.3,452.3q.1-.1.2-.1h-3.8v.4h3.5s.1,0,.1-.1c.1-.1.2-.1.3-.2.1,0,.1-.1.2-.1h-.5q0,.1,0,.1ZM402.2,452.7v-.4h-7.4s-.1.1-.2.1c-.1.1-.2.1-.3.2,0,0-.1,0-.1.1l-.3.3c-.1.1-.1.2-.2.2h0c-.1.1-.2.2-.2.3-.3.4-.4.7-.6,1.2,0,.1,0,.2-.1.3v.2c0,.1-.1.2-.1.3,0,.3-.1.6-.1.9v.2h-.2v.2h9.5v-.2h.1c.2-1.2.2-2.5.2-3.9ZM120.3,452.8v3.2c0,.1,0,.2,0,.3,0,.1,0,.2,0,.3h2.5v-3.8h-2.3ZM394.5,452.3c-.1.1-.2.1-.3.2l-.3.3c-.1.1-.2.2-.2.3-.1.1-.1.2-.2.3-.1.1-.1.2-.2.3-.1.2-.2.3-.3.5,0,.1-.1.2-.1.3-.1.2-.1.4-.2.6,0,.1,0,.2-.1.3,0,.3-.1.6-.1.9v.5h9.5v-.2c.1-1.2.1-2.6.1-3.8v-.5h-7.6ZM109,452.3v.5h13.6v-.5h-13.6ZM390.8,452.2v.5h3.2l.3-.3h.1q.1-.2.2-.2h-3.8Z"/>
</svg>