<?xml version="1.0" encoding="UTF-8"?>
<svg id="border-failure" xmlns="http://www.w3.org/2000/svg" version="1.1" xmlns:xlink="http://www.w3.org/1999/xlink" viewBox="0 0 512 512">
  <!-- Generator: Adobe Illustrator 29.3.1, SVG Export Plug-In . SVG Version: 2.1.0 Build 151)  -->
  <defs>
    <style>
      .st0 {
        fill: url(#linear-gradient);
      }
    </style>
    <linearGradient id="linear-gradient" x1="12.1" y1="484.1" x2="495" y2="63.2" gradientTransform="translate(0 514) scale(1 -1)" gradientUnits="userSpaceOnUse">
      <stop offset="0" stop-color="#f03232"/>
      <stop offset="1" stop-color="#460e0e"/>
    </linearGradient>
  </defs>
  <path id="Background" d="M501.5,29.9v424.2h-214.1c-10.9-6.2-20.7-13.7-29.3-22.2l-2.6-2.6-2.6,2.6c-8.6,8.5-18.4,16-29.3,22.2H9.5V29.9h213.9c10.9,6.3,20.8,13.7,29.5,22.3l2.6,2.6,2.6-2.6c8.7-8.6,18.6-16.1,29.5-22.3,0,0,213.9,0,213.9,0Z"/>
  <path id="Border" class="st0" d="M256,23.7c-3.4,0-6.3,2.8-6.3,6.3s2.8,6.3,6.3,6.3,6.3-2.8,6.3-6.3-2.8-6.3-6.3-6.3ZM256,448.3c-3.4,0-6.3,2.8-6.3,6.3s2.8,6.3,6.3,6.3,6.3-2.8,6.3-6.3-2.8-6.3-6.3-6.3ZM512,20h-198.9c-8.2,0-16.2-.9-23.4,2.9-3.8,2-7.1,3.8-9.4,5.1h-13.1c.1.6.2,1.3.2,2s0,1.4-.2,2h5.7c-6.1,3.6-11.5,7.6-16.8,11.9-5.4-4.3-11.5-8.3-17.7-11.9h6.5c-.1-.6-.2-1.3-.2-2s0-1.4.2-2h-13.9c-2-1.1-4.4-2.5-6.8-3.8-.1,0-.2-.1-.3-.2h.1c-.4-.2-.7-.4-1.1-.6-7.4-4.1-15.9-3.4-24.5-3.4H0v445h198.3c8.6-.3,17.1.4,24.5-3.7.4-.2,1.1-.3,1.1-.3h-.1c.1,0,.2-.1.3-.2,2.5-1.4,4.8-2.7,6.8-3.8h13.9c-.1-.6-.2-1.3-.2-2s0-1.4.2-2h-6.5c6.1-3.6,12.3-7.6,17.7-11.9,5.3,4.3,10.7,8.3,16.8,11.9h-5.7c.1.6.2,1.3.2,2s0,1.4-.2,2h13.1c2.3,1.3,5.6,3.1,9.4,5.1,7.2,3.8,15.2,2.9,23.4,2.9h198.9V20ZM504,24h4v4h-4v-4ZM12,24h186.8c6.5,0,10,.8,13.2,2.3,1.1.5,2.3,1.1,3.4,1.7H12v-4ZM8,461h-4v-4h4v4ZM4,452V32h4v420h-4ZM8,28h-4v-4h4v4ZM212,458.7c-3.2,1.5-6.7,2.3-13.2,2.3H12v-4h203.4c-1.1.6-2.3,1.1-3.4,1.7ZM499,461h-189.8c-3.5,0-6.9-.8-10.1-2.2-1.2-.6-2.4-1.1-3.5-1.8h203.4v4ZM499,452h-211.7c-10.8-6.2-20.6-13.6-29.2-22.1l-2.6-2.5-2.6,2.5c-8.6,8.5-18.4,15.9-29.2,22.1H12V32h211.7c10.8,6.2,20.6,13.6,29.2,22.1l2.6,2.5,2.6-2.5c8.6-8.5,18.4-15.9,29.2-22.1h211.7v420ZM499,28h-203.4c1.2-.6,2.4-1.2,3.5-1.8,3.1-1.5,6.6-2.2,10.1-2.2h189.8v4ZM508,461h-4v-4h4v4ZM504,452V32h4v420h-4Z"/>
</svg>