<?xml version="1.0" encoding="UTF-8"?>
<svg id="Layer_2" data-name="Layer 2" xmlns="http://www.w3.org/2000/svg" viewBox="0 0 32 32">
  <g id="Layer_5" data-name="Layer 5">
    <path d="M20.01,24.68v7.32h-8.73v-7.34c0-2.47,1.98-4.5,4.37-4.5,1.2,0,2.29.5,3.09,1.33.8.82,1.28,1.95,1.28,3.19ZM32,16.34s-2.52-1.92-3.26-4.31v-3.94c.74-6.41-3.65-6.33-6.07-6.33-.08,0-.08,28.46-.02,28.46,2.62,0,6.81,0,7.06-6.43v-3.46c-.25-2.17,2.29-3.98,2.29-3.98ZM9.35,1.78c-2.43,0-6.81-.08-6.81,6.33v3.94c0,2.39-2.54,4.31-2.54,4.31,0,0,2.54,1.81,2.54,3.98v3.46c0,6.43,4.19,6.43,6.81,6.43.06,0,.06-28.48,0-28.46ZM11.27,0v9.69c0,1.25.49,2.38,1.28,3.19.8.83,1.88,1.33,3.09,1.33,2.41,0,4.37-2.01,4.37-4.52V0h-8.73Z"/>
  </g>
</svg>